<?xml version="1.0" encoding="UTF-8" standalone="no"?>
<!DOCTYPE svg PUBLIC "-//W3C//DTD SVG 1.1//EN"
 "http://www.w3.org/Graphics/SVG/1.1/DTD/svg11.dtd">
<!-- Generated by graphviz version 2.50.0 (0)
 -->
<!-- Title: snakemake_dag Pages: 1 -->
<svg width="298pt" height="764pt"
 viewBox="0.00 0.00 298.00 764.00" xmlns="http://www.w3.org/2000/svg" xmlns:xlink="http://www.w3.org/1999/xlink">
<g id="graph0" class="graph" transform="scale(1 1) rotate(0) translate(4 760)">
<title>snakemake_dag</title>
<polygon fill="white" stroke="transparent" points="-4,4 -4,-760 294,-760 294,4 -4,4"/>
<!-- 0 -->
<g id="node1" class="node">
<title>0</title>
<path fill="none" stroke="#d85656" stroke-width="2" stroke-dasharray="5,2" d="M151.5,-36C151.5,-36 121.5,-36 121.5,-36 115.5,-36 109.5,-30 109.5,-24 109.5,-24 109.5,-12 109.5,-12 109.5,-6 115.5,0 121.5,0 121.5,0 151.5,0 151.5,0 157.5,0 163.5,-6 163.5,-12 163.5,-12 163.5,-24 163.5,-24 163.5,-30 157.5,-36 151.5,-36"/>
<text text-anchor="middle" x="136.5" y="-15.5" font-family="sans" font-size="10.00">all</text>
</g>
<!-- 1 -->
<g id="node2" class="node">
<title>1</title>
<path fill="none" stroke="#59d856" stroke-width="2" stroke-dasharray="5,2" d="M151.5,-180C151.5,-180 121.5,-180 121.5,-180 115.5,-180 109.5,-174 109.5,-168 109.5,-168 109.5,-156 109.5,-156 109.5,-150 115.5,-144 121.5,-144 121.5,-144 151.5,-144 151.5,-144 157.5,-144 163.5,-150 163.5,-156 163.5,-156 163.5,-168 163.5,-168 163.5,-174 157.5,-180 151.5,-180"/>
<text text-anchor="middle" x="136.5" y="-159.5" font-family="sans" font-size="10.00">dpi</text>
</g>
<!-- 1&#45;&gt;0 -->
<g id="edge1" class="edge">
<title>1&#45;&gt;0</title>
<path fill="none" stroke="grey" stroke-width="2" d="M132.44,-143.93C130.19,-133.6 127.63,-120.12 126.5,-108 125.01,-92.07 125.01,-87.93 126.5,-72 127.3,-63.48 128.8,-54.28 130.4,-45.99"/>
<polygon fill="grey" stroke="grey" stroke-width="2" points="133.86,-46.57 132.44,-36.07 127,-45.16 133.86,-46.57"/>
</g>
<!-- 20 -->
<g id="node21" class="node">
<title>20</title>
<path fill="none" stroke="#56d882" stroke-width="2" stroke-dasharray="5,2" d="M183.5,-108C183.5,-108 147.5,-108 147.5,-108 141.5,-108 135.5,-102 135.5,-96 135.5,-96 135.5,-84 135.5,-84 135.5,-78 141.5,-72 147.5,-72 147.5,-72 183.5,-72 183.5,-72 189.5,-72 195.5,-78 195.5,-84 195.5,-84 195.5,-96 195.5,-96 195.5,-102 189.5,-108 183.5,-108"/>
<text text-anchor="middle" x="165.5" y="-87.5" font-family="sans" font-size="10.00">visualize</text>
</g>
<!-- 1&#45;&gt;20 -->
<g id="edge23" class="edge">
<title>1&#45;&gt;20</title>
<path fill="none" stroke="grey" stroke-width="2" d="M143.67,-143.7C146.93,-135.81 150.87,-126.3 154.5,-117.55"/>
<polygon fill="grey" stroke="grey" stroke-width="2" points="157.82,-118.68 158.41,-108.1 151.35,-116 157.82,-118.68"/>
</g>
<!-- 2 -->
<g id="node3" class="node">
<title>2</title>
<path fill="none" stroke="#afd856" stroke-width="2" stroke-dasharray="5,2" d="M115.5,-252C115.5,-252 85.5,-252 85.5,-252 79.5,-252 73.5,-246 73.5,-240 73.5,-240 73.5,-228 73.5,-228 73.5,-222 79.5,-216 85.5,-216 85.5,-216 115.5,-216 115.5,-216 121.5,-216 127.5,-222 127.5,-228 127.5,-228 127.5,-240 127.5,-240 127.5,-246 121.5,-252 115.5,-252"/>
<text text-anchor="middle" x="100.5" y="-231.5" font-family="sans" font-size="10.00">pre_dpi</text>
</g>
<!-- 2&#45;&gt;1 -->
<g id="edge3" class="edge">
<title>2&#45;&gt;1</title>
<path fill="none" stroke="grey" stroke-width="2" d="M109.4,-215.7C113.5,-207.73 118.45,-198.1 122.99,-189.26"/>
<polygon fill="grey" stroke="grey" stroke-width="2" points="126.24,-190.6 127.7,-180.1 120.02,-187.4 126.24,-190.6"/>
</g>
<!-- 3 -->
<g id="node4" class="node">
<title>3</title>
<path fill="none" stroke="#56d8a9" stroke-width="2" stroke-dasharray="5,2" d="M43.5,-324C43.5,-324 13.5,-324 13.5,-324 7.5,-324 1.5,-318 1.5,-312 1.5,-312 1.5,-300 1.5,-300 1.5,-294 7.5,-288 13.5,-288 13.5,-288 43.5,-288 43.5,-288 49.5,-288 55.5,-294 55.5,-300 55.5,-300 55.5,-312 55.5,-312 55.5,-318 49.5,-324 43.5,-324"/>
<text text-anchor="middle" x="28.5" y="-303.5" font-family="sans" font-size="10.00">rseqc</text>
</g>
<!-- 3&#45;&gt;2 -->
<g id="edge5" class="edge">
<title>3&#45;&gt;2</title>
<path fill="none" stroke="grey" stroke-width="2" d="M46.3,-287.7C55.1,-279.14 65.88,-268.66 75.5,-259.3"/>
<polygon fill="grey" stroke="grey" stroke-width="2" points="78.18,-261.58 82.91,-252.1 73.3,-256.57 78.18,-261.58"/>
</g>
<!-- 4 -->
<g id="node5" class="node">
<title>4</title>
<path fill="none" stroke="#80d856" stroke-width="2" stroke-dasharray="5,2" d="M84,-396C84,-396 43,-396 43,-396 37,-396 31,-390 31,-384 31,-384 31,-372 31,-372 31,-366 37,-360 43,-360 43,-360 84,-360 84,-360 90,-360 96,-366 96,-372 96,-372 96,-384 96,-384 96,-390 90,-396 84,-396"/>
<text text-anchor="middle" x="63.5" y="-375.5" font-family="sans" font-size="10.00">mark_dup</text>
</g>
<!-- 4&#45;&gt;3 -->
<g id="edge7" class="edge">
<title>4&#45;&gt;3</title>
<path fill="none" stroke="grey" stroke-width="2" d="M54.85,-359.7C50.86,-351.73 46.05,-342.1 41.63,-333.26"/>
<polygon fill="grey" stroke="grey" stroke-width="2" points="44.65,-331.48 37.05,-324.1 38.39,-334.61 44.65,-331.48"/>
</g>
<!-- 10 -->
<g id="node11" class="node">
<title>10</title>
<path fill="none" stroke="#d6d856" stroke-width="2" stroke-dasharray="5,2" d="M115.5,-324C115.5,-324 85.5,-324 85.5,-324 79.5,-324 73.5,-318 73.5,-312 73.5,-312 73.5,-300 73.5,-300 73.5,-294 79.5,-288 85.5,-288 85.5,-288 115.5,-288 115.5,-288 121.5,-288 127.5,-294 127.5,-300 127.5,-300 127.5,-312 127.5,-312 127.5,-318 121.5,-324 115.5,-324"/>
<text text-anchor="middle" x="100.5" y="-303.5" font-family="sans" font-size="10.00">ctss</text>
</g>
<!-- 4&#45;&gt;10 -->
<g id="edge13" class="edge">
<title>4&#45;&gt;10</title>
<path fill="none" stroke="grey" stroke-width="2" d="M72.65,-359.7C76.9,-351.64 82.06,-341.89 86.77,-332.98"/>
<polygon fill="grey" stroke="grey" stroke-width="2" points="89.88,-334.58 91.46,-324.1 83.69,-331.31 89.88,-334.58"/>
</g>
<!-- 5 -->
<g id="node6" class="node">
<title>5</title>
<path fill="none" stroke="#d88556" stroke-width="2" stroke-dasharray="5,2" d="M82.5,-468C82.5,-468 44.5,-468 44.5,-468 38.5,-468 32.5,-462 32.5,-456 32.5,-456 32.5,-444 32.5,-444 32.5,-438 38.5,-432 44.5,-432 44.5,-432 82.5,-432 82.5,-432 88.5,-432 94.5,-438 94.5,-444 94.5,-444 94.5,-456 94.5,-456 94.5,-462 88.5,-468 82.5,-468"/>
<text text-anchor="middle" x="63.5" y="-447.5" font-family="sans" font-size="10.00">sort_bam</text>
</g>
<!-- 5&#45;&gt;4 -->
<g id="edge8" class="edge">
<title>5&#45;&gt;4</title>
<path fill="none" stroke="grey" stroke-width="2" d="M63.5,-431.7C63.5,-423.98 63.5,-414.71 63.5,-406.11"/>
<polygon fill="grey" stroke="grey" stroke-width="2" points="67,-406.1 63.5,-396.1 60,-406.1 67,-406.1"/>
</g>
<!-- 6 -->
<g id="node7" class="node">
<title>6</title>
<path fill="none" stroke="#56a9d8" stroke-width="2" stroke-dasharray="5,2" d="M78.5,-540C78.5,-540 48.5,-540 48.5,-540 42.5,-540 36.5,-534 36.5,-528 36.5,-528 36.5,-516 36.5,-516 36.5,-510 42.5,-504 48.5,-504 48.5,-504 78.5,-504 78.5,-504 84.5,-504 90.5,-510 90.5,-516 90.5,-516 90.5,-528 90.5,-528 90.5,-534 84.5,-540 78.5,-540"/>
<text text-anchor="middle" x="63.5" y="-519.5" font-family="sans" font-size="10.00">hisat2</text>
</g>
<!-- 6&#45;&gt;5 -->
<g id="edge9" class="edge">
<title>6&#45;&gt;5</title>
<path fill="none" stroke="grey" stroke-width="2" d="M63.5,-503.7C63.5,-495.98 63.5,-486.71 63.5,-478.11"/>
<polygon fill="grey" stroke="grey" stroke-width="2" points="67,-478.1 63.5,-468.1 60,-478.1 67,-478.1"/>
</g>
<!-- 7 -->
<g id="node8" class="node">
<title>7</title>
<path fill="none" stroke="#5682d8" stroke-width="2" stroke-dasharray="5,2" d="M85,-612C85,-612 42,-612 42,-612 36,-612 30,-606 30,-600 30,-600 30,-588 30,-588 30,-582 36,-576 42,-576 42,-576 85,-576 85,-576 91,-576 97,-582 97,-588 97,-588 97,-600 97,-600 97,-606 91,-612 85,-612"/>
<text text-anchor="middle" x="63.5" y="-591.5" font-family="sans" font-size="10.00">sortmerna</text>
</g>
<!-- 7&#45;&gt;6 -->
<g id="edge10" class="edge">
<title>7&#45;&gt;6</title>
<path fill="none" stroke="grey" stroke-width="2" d="M63.5,-575.7C63.5,-567.98 63.5,-558.71 63.5,-550.11"/>
<polygon fill="grey" stroke="grey" stroke-width="2" points="67,-550.1 63.5,-540.1 60,-550.1 67,-550.1"/>
</g>
<!-- 8 -->
<g id="node9" class="node">
<title>8</title>
<path fill="none" stroke="#56d8d8" stroke-width="2" stroke-dasharray="5,2" d="M81,-684C81,-684 46,-684 46,-684 40,-684 34,-678 34,-672 34,-672 34,-660 34,-660 34,-654 40,-648 46,-648 46,-648 81,-648 81,-648 87,-648 93,-654 93,-660 93,-660 93,-672 93,-672 93,-678 87,-684 81,-684"/>
<text text-anchor="middle" x="63.5" y="-663.5" font-family="sans" font-size="10.00">cutadapt</text>
</g>
<!-- 8&#45;&gt;7 -->
<g id="edge11" class="edge">
<title>8&#45;&gt;7</title>
<path fill="none" stroke="grey" stroke-width="2" d="M63.5,-647.7C63.5,-639.98 63.5,-630.71 63.5,-622.11"/>
<polygon fill="grey" stroke="grey" stroke-width="2" points="67,-622.1 63.5,-612.1 60,-622.1 67,-622.1"/>
</g>
<!-- 9 -->
<g id="node10" class="node">
<title>9</title>
<path fill="none" stroke="#d8ac56" stroke-width="2" stroke-dasharray="5,2" d="M115,-756C115,-756 12,-756 12,-756 6,-756 0,-750 0,-744 0,-744 0,-732 0,-732 0,-726 6,-720 12,-720 12,-720 115,-720 115,-720 121,-720 127,-726 127,-732 127,-732 127,-744 127,-744 127,-750 121,-756 115,-756"/>
<text text-anchor="middle" x="63.5" y="-741" font-family="sans" font-size="10.00">fastqc</text>
<text text-anchor="middle" x="63.5" y="-730" font-family="sans" font-size="10.00">sample: DRR093534_1</text>
</g>
<!-- 9&#45;&gt;8 -->
<g id="edge12" class="edge">
<title>9&#45;&gt;8</title>
<path fill="none" stroke="grey" stroke-width="2" d="M63.5,-719.7C63.5,-711.98 63.5,-702.71 63.5,-694.11"/>
<polygon fill="grey" stroke="grey" stroke-width="2" points="67,-694.1 63.5,-684.1 60,-694.1 67,-694.1"/>
</g>
<!-- 10&#45;&gt;2 -->
<g id="edge6" class="edge">
<title>10&#45;&gt;2</title>
<path fill="none" stroke="grey" stroke-width="2" d="M100.5,-287.7C100.5,-279.98 100.5,-270.71 100.5,-262.11"/>
<polygon fill="grey" stroke="grey" stroke-width="2" points="104,-262.1 100.5,-252.1 97,-262.1 104,-262.1"/>
</g>
<!-- 11 -->
<g id="node12" class="node">
<title>11</title>
<path fill="none" stroke="#afd856" stroke-width="2" stroke-dasharray="5,2" d="M187.5,-252C187.5,-252 157.5,-252 157.5,-252 151.5,-252 145.5,-246 145.5,-240 145.5,-240 145.5,-228 145.5,-228 145.5,-222 151.5,-216 157.5,-216 157.5,-216 187.5,-216 187.5,-216 193.5,-216 199.5,-222 199.5,-228 199.5,-228 199.5,-240 199.5,-240 199.5,-246 193.5,-252 187.5,-252"/>
<text text-anchor="middle" x="172.5" y="-231.5" font-family="sans" font-size="10.00">pre_dpi</text>
</g>
<!-- 11&#45;&gt;1 -->
<g id="edge4" class="edge">
<title>11&#45;&gt;1</title>
<path fill="none" stroke="grey" stroke-width="2" d="M163.6,-215.7C159.5,-207.73 154.55,-198.1 150.01,-189.26"/>
<polygon fill="grey" stroke="grey" stroke-width="2" points="152.98,-187.4 145.3,-180.1 146.76,-190.6 152.98,-187.4"/>
</g>
<!-- 12 -->
<g id="node13" class="node">
<title>12</title>
<path fill="none" stroke="#56d8a9" stroke-width="2" stroke-dasharray="5,2" d="M187.5,-324C187.5,-324 157.5,-324 157.5,-324 151.5,-324 145.5,-318 145.5,-312 145.5,-312 145.5,-300 145.5,-300 145.5,-294 151.5,-288 157.5,-288 157.5,-288 187.5,-288 187.5,-288 193.5,-288 199.5,-294 199.5,-300 199.5,-300 199.5,-312 199.5,-312 199.5,-318 193.5,-324 187.5,-324"/>
<text text-anchor="middle" x="172.5" y="-303.5" font-family="sans" font-size="10.00">rseqc</text>
</g>
<!-- 12&#45;&gt;11 -->
<g id="edge14" class="edge">
<title>12&#45;&gt;11</title>
<path fill="none" stroke="grey" stroke-width="2" d="M172.5,-287.7C172.5,-279.98 172.5,-270.71 172.5,-262.11"/>
<polygon fill="grey" stroke="grey" stroke-width="2" points="176,-262.1 172.5,-252.1 169,-262.1 176,-262.1"/>
</g>
<!-- 13 -->
<g id="node14" class="node">
<title>13</title>
<path fill="none" stroke="#80d856" stroke-width="2" stroke-dasharray="5,2" d="M247,-396C247,-396 206,-396 206,-396 200,-396 194,-390 194,-384 194,-384 194,-372 194,-372 194,-366 200,-360 206,-360 206,-360 247,-360 247,-360 253,-360 259,-366 259,-372 259,-372 259,-384 259,-384 259,-390 253,-396 247,-396"/>
<text text-anchor="middle" x="226.5" y="-375.5" font-family="sans" font-size="10.00">mark_dup</text>
</g>
<!-- 13&#45;&gt;12 -->
<g id="edge16" class="edge">
<title>13&#45;&gt;12</title>
<path fill="none" stroke="grey" stroke-width="2" d="M213.15,-359.7C206.74,-351.39 198.94,-341.28 191.89,-332.14"/>
<polygon fill="grey" stroke="grey" stroke-width="2" points="194.57,-329.88 185.69,-324.1 189.03,-334.16 194.57,-329.88"/>
</g>
<!-- 19 -->
<g id="node20" class="node">
<title>19</title>
<path fill="none" stroke="#d6d856" stroke-width="2" stroke-dasharray="5,2" d="M259.5,-324C259.5,-324 229.5,-324 229.5,-324 223.5,-324 217.5,-318 217.5,-312 217.5,-312 217.5,-300 217.5,-300 217.5,-294 223.5,-288 229.5,-288 229.5,-288 259.5,-288 259.5,-288 265.5,-288 271.5,-294 271.5,-300 271.5,-300 271.5,-312 271.5,-312 271.5,-318 265.5,-324 259.5,-324"/>
<text text-anchor="middle" x="244.5" y="-303.5" font-family="sans" font-size="10.00">ctss</text>
</g>
<!-- 13&#45;&gt;19 -->
<g id="edge22" class="edge">
<title>13&#45;&gt;19</title>
<path fill="none" stroke="grey" stroke-width="2" d="M230.95,-359.7C232.95,-351.9 235.37,-342.51 237.6,-333.83"/>
<polygon fill="grey" stroke="grey" stroke-width="2" points="241,-334.66 240.1,-324.1 234.22,-332.92 241,-334.66"/>
</g>
<!-- 14 -->
<g id="node15" class="node">
<title>14</title>
<path fill="none" stroke="#d88556" stroke-width="2" stroke-dasharray="5,2" d="M245.5,-468C245.5,-468 207.5,-468 207.5,-468 201.5,-468 195.5,-462 195.5,-456 195.5,-456 195.5,-444 195.5,-444 195.5,-438 201.5,-432 207.5,-432 207.5,-432 245.5,-432 245.5,-432 251.5,-432 257.5,-438 257.5,-444 257.5,-444 257.5,-456 257.5,-456 257.5,-462 251.5,-468 245.5,-468"/>
<text text-anchor="middle" x="226.5" y="-447.5" font-family="sans" font-size="10.00">sort_bam</text>
</g>
<!-- 14&#45;&gt;13 -->
<g id="edge17" class="edge">
<title>14&#45;&gt;13</title>
<path fill="none" stroke="grey" stroke-width="2" d="M226.5,-431.7C226.5,-423.98 226.5,-414.71 226.5,-406.11"/>
<polygon fill="grey" stroke="grey" stroke-width="2" points="230,-406.1 226.5,-396.1 223,-406.1 230,-406.1"/>
</g>
<!-- 15 -->
<g id="node16" class="node">
<title>15</title>
<path fill="none" stroke="#56a9d8" stroke-width="2" stroke-dasharray="5,2" d="M241.5,-540C241.5,-540 211.5,-540 211.5,-540 205.5,-540 199.5,-534 199.5,-528 199.5,-528 199.5,-516 199.5,-516 199.5,-510 205.5,-504 211.5,-504 211.5,-504 241.5,-504 241.5,-504 247.5,-504 253.5,-510 253.5,-516 253.5,-516 253.5,-528 253.5,-528 253.5,-534 247.5,-540 241.5,-540"/>
<text text-anchor="middle" x="226.5" y="-519.5" font-family="sans" font-size="10.00">hisat2</text>
</g>
<!-- 15&#45;&gt;14 -->
<g id="edge18" class="edge">
<title>15&#45;&gt;14</title>
<path fill="none" stroke="grey" stroke-width="2" d="M226.5,-503.7C226.5,-495.98 226.5,-486.71 226.5,-478.11"/>
<polygon fill="grey" stroke="grey" stroke-width="2" points="230,-478.1 226.5,-468.1 223,-478.1 230,-478.1"/>
</g>
<!-- 16 -->
<g id="node17" class="node">
<title>16</title>
<path fill="none" stroke="#5682d8" stroke-width="2" stroke-dasharray="5,2" d="M248,-612C248,-612 205,-612 205,-612 199,-612 193,-606 193,-600 193,-600 193,-588 193,-588 193,-582 199,-576 205,-576 205,-576 248,-576 248,-576 254,-576 260,-582 260,-588 260,-588 260,-600 260,-600 260,-606 254,-612 248,-612"/>
<text text-anchor="middle" x="226.5" y="-591.5" font-family="sans" font-size="10.00">sortmerna</text>
</g>
<!-- 16&#45;&gt;15 -->
<g id="edge19" class="edge">
<title>16&#45;&gt;15</title>
<path fill="none" stroke="grey" stroke-width="2" d="M226.5,-575.7C226.5,-567.98 226.5,-558.71 226.5,-550.11"/>
<polygon fill="grey" stroke="grey" stroke-width="2" points="230,-550.1 226.5,-540.1 223,-550.1 230,-550.1"/>
</g>
<!-- 17 -->
<g id="node18" class="node">
<title>17</title>
<path fill="none" stroke="#56d8d8" stroke-width="2" stroke-dasharray="5,2" d="M244,-684C244,-684 209,-684 209,-684 203,-684 197,-678 197,-672 197,-672 197,-660 197,-660 197,-654 203,-648 209,-648 209,-648 244,-648 244,-648 250,-648 256,-654 256,-660 256,-660 256,-672 256,-672 256,-678 250,-684 244,-684"/>
<text text-anchor="middle" x="226.5" y="-663.5" font-family="sans" font-size="10.00">cutadapt</text>
</g>
<!-- 17&#45;&gt;16 -->
<g id="edge20" class="edge">
<title>17&#45;&gt;16</title>
<path fill="none" stroke="grey" stroke-width="2" d="M226.5,-647.7C226.5,-639.98 226.5,-630.71 226.5,-622.11"/>
<polygon fill="grey" stroke="grey" stroke-width="2" points="230,-622.1 226.5,-612.1 223,-622.1 230,-622.1"/>
</g>
<!-- 18 -->
<g id="node19" class="node">
<title>18</title>
<path fill="none" stroke="#d8ac56" stroke-width="2" stroke-dasharray="5,2" d="M278,-756C278,-756 175,-756 175,-756 169,-756 163,-750 163,-744 163,-744 163,-732 163,-732 163,-726 169,-720 175,-720 175,-720 278,-720 278,-720 284,-720 290,-726 290,-732 290,-732 290,-744 290,-744 290,-750 284,-756 278,-756"/>
<text text-anchor="middle" x="226.5" y="-741" font-family="sans" font-size="10.00">fastqc</text>
<text text-anchor="middle" x="226.5" y="-730" font-family="sans" font-size="10.00">sample: DRR093535_1</text>
</g>
<!-- 18&#45;&gt;17 -->
<g id="edge21" class="edge">
<title>18&#45;&gt;17</title>
<path fill="none" stroke="grey" stroke-width="2" d="M226.5,-719.7C226.5,-711.98 226.5,-702.71 226.5,-694.11"/>
<polygon fill="grey" stroke="grey" stroke-width="2" points="230,-694.1 226.5,-684.1 223,-694.1 230,-694.1"/>
</g>
<!-- 19&#45;&gt;11 -->
<g id="edge15" class="edge">
<title>19&#45;&gt;11</title>
<path fill="none" stroke="grey" stroke-width="2" d="M226.7,-287.7C217.9,-279.14 207.12,-268.66 197.5,-259.3"/>
<polygon fill="grey" stroke="grey" stroke-width="2" points="199.7,-256.57 190.09,-252.1 194.82,-261.58 199.7,-256.57"/>
</g>
<!-- 20&#45;&gt;0 -->
<g id="edge2" class="edge">
<title>20&#45;&gt;0</title>
<path fill="none" stroke="grey" stroke-width="2" d="M158.33,-71.7C155.07,-63.81 151.13,-54.3 147.5,-45.55"/>
<polygon fill="grey" stroke="grey" stroke-width="2" points="150.65,-44 143.59,-36.1 144.18,-46.68 150.65,-44"/>
</g>
</g>
</svg>
